<mxfile host="app.diagrams.net" modified="2023-03-20T06:46:00.504Z" agent="5.0 (Windows NT 10.0; Win64; x64) AppleWebKit/537.36 (KHTML, like Gecko) Chrome/111.0.0.0 Safari/537.36" etag="5v7MCFlsQGSUKRnSLeiK" version="21.0.8" type="github">
  <diagram name="第1頁" id="cEbSMWyDFGQqX7mPElce">
    <mxGraphModel dx="1434" dy="768" grid="1" gridSize="10" guides="1" tooltips="1" connect="1" arrows="1" fold="1" page="1" pageScale="1" pageWidth="827" pageHeight="1169" math="0" shadow="0">
      <root>
        <mxCell id="0" />
        <mxCell id="1" parent="0" />
        <mxCell id="fJ1K3UAOqhPBNynFzvqz-1" value="parents" style="rounded=0;whiteSpace=wrap;html=1;" vertex="1" parent="1">
          <mxGeometry x="240" y="350" width="80" height="40" as="geometry" />
        </mxCell>
        <mxCell id="fJ1K3UAOqhPBNynFzvqz-13" value="" style="edgeStyle=orthogonalEdgeStyle;rounded=0;orthogonalLoop=1;jettySize=auto;html=1;" edge="1" parent="1" source="fJ1K3UAOqhPBNynFzvqz-2" target="fJ1K3UAOqhPBNynFzvqz-12">
          <mxGeometry relative="1" as="geometry" />
        </mxCell>
        <mxCell id="fJ1K3UAOqhPBNynFzvqz-2" value="children" style="rounded=0;whiteSpace=wrap;html=1;" vertex="1" parent="1">
          <mxGeometry x="480" y="350" width="80" height="40" as="geometry" />
        </mxCell>
        <mxCell id="fJ1K3UAOqhPBNynFzvqz-3" value="name" style="ellipse;whiteSpace=wrap;html=1;" vertex="1" parent="1">
          <mxGeometry x="240" y="260" width="60" height="40" as="geometry" />
        </mxCell>
        <mxCell id="fJ1K3UAOqhPBNynFzvqz-4" value="" style="endArrow=none;html=1;rounded=0;entryX=0.5;entryY=1;entryDx=0;entryDy=0;exitX=0.5;exitY=0;exitDx=0;exitDy=0;" edge="1" parent="1" source="fJ1K3UAOqhPBNynFzvqz-1" target="fJ1K3UAOqhPBNynFzvqz-3">
          <mxGeometry width="50" height="50" relative="1" as="geometry">
            <mxPoint x="390" y="420" as="sourcePoint" />
            <mxPoint x="440" y="370" as="targetPoint" />
          </mxGeometry>
        </mxCell>
        <mxCell id="fJ1K3UAOqhPBNynFzvqz-5" value="" style="endArrow=none;html=1;rounded=0;exitX=1;exitY=0.5;exitDx=0;exitDy=0;" edge="1" parent="1" source="fJ1K3UAOqhPBNynFzvqz-1" target="fJ1K3UAOqhPBNynFzvqz-12">
          <mxGeometry width="50" height="50" relative="1" as="geometry">
            <mxPoint x="390" y="420" as="sourcePoint" />
            <mxPoint x="360" y="470" as="targetPoint" />
          </mxGeometry>
        </mxCell>
        <mxCell id="fJ1K3UAOqhPBNynFzvqz-6" value="name" style="ellipse;whiteSpace=wrap;html=1;" vertex="1" parent="1">
          <mxGeometry x="450" y="230" width="60" height="40" as="geometry" />
        </mxCell>
        <mxCell id="fJ1K3UAOqhPBNynFzvqz-7" value="" style="endArrow=none;html=1;rounded=0;exitX=0.25;exitY=0;exitDx=0;exitDy=0;entryX=0.5;entryY=1;entryDx=0;entryDy=0;" edge="1" parent="1" target="fJ1K3UAOqhPBNynFzvqz-6" source="fJ1K3UAOqhPBNynFzvqz-2">
          <mxGeometry width="50" height="50" relative="1" as="geometry">
            <mxPoint x="384" y="340" as="sourcePoint" />
            <mxPoint x="470" y="300" as="targetPoint" />
          </mxGeometry>
        </mxCell>
        <mxCell id="fJ1K3UAOqhPBNynFzvqz-8" value="age" style="ellipse;whiteSpace=wrap;html=1;" vertex="1" parent="1">
          <mxGeometry x="540" y="230" width="60" height="40" as="geometry" />
        </mxCell>
        <mxCell id="fJ1K3UAOqhPBNynFzvqz-9" value="" style="endArrow=none;html=1;rounded=0;exitX=0.5;exitY=0;exitDx=0;exitDy=0;entryX=0.5;entryY=1;entryDx=0;entryDy=0;" edge="1" parent="1" source="fJ1K3UAOqhPBNynFzvqz-2" target="fJ1K3UAOqhPBNynFzvqz-8">
          <mxGeometry width="50" height="50" relative="1" as="geometry">
            <mxPoint x="404" y="360" as="sourcePoint" />
            <mxPoint x="394" y="300" as="targetPoint" />
          </mxGeometry>
        </mxCell>
        <mxCell id="fJ1K3UAOqhPBNynFzvqz-12" value="is_parent_child" style="rhombus;whiteSpace=wrap;html=1;" vertex="1" parent="1">
          <mxGeometry x="340" y="330" width="110" height="80" as="geometry" />
        </mxCell>
      </root>
    </mxGraphModel>
  </diagram>
</mxfile>
